# xmcd
# 
# Track frame offsets:
#     150
#     27340
#     40667
#     66752
#     94045
#     110945
#     128595
#     138125
#     164352
#     176295
#     191042
#     213310
#     227970
#     244470
# 
# Disc length: 3470
# 
# Revision: 2
# Processed by: cddbd v1.5.2PL0 Copyright (c) Steve Scherf et al.
# Submitted via: fre:ac v1.0.17
# 
DISCID=c30d8c0e
DTITLE=NYハーレム・ゴスペル - オー・ハッピー・デイ〜ベスト・オブ・NYハーレム・ゴスペル〜
DYEAR=2003
DGENRE=Pop
TTITLE0=オー・ハッピー・デイ
TTITLE1=アメイジング・グレイス
TTITLE2=ヘイ・ジュード
TTITLE3=ホワット・ユー・カム・トゥ・ドゥ
TTITLE4=ブレス・ユー・マイ・チルドレン
TTITLE5=ノー・グレイター・ラヴ〜グレイテスト・ラヴ・オブ・オール
TTITLE6=オールド・タイム・レリジョン
TTITLE7=レット・イット・ビー
TTITLE8=ジス・リトル・ライト・オブ・マイン
TTITLE9=スイング・ロウ、スイート・チャリオット
TTITLE10=ジーザス・イズ・ザ・ベスト・シング
TTITLE11=ディープ・リヴァー
TTITLE12=ライズ・アップ・アンド・ウォーク
TTITLE13=ギフテッド・イズ
EXTD=
EXTT0=
EXTT1=
EXTT2=
EXTT3=
EXTT4=
EXTT5=
EXTT6=
EXTT7=
EXTT8=
EXTT9=
EXTT10=
EXTT11=
EXTT12=
EXTT13=
PLAYORDER=
